<?xml version="1.0" standalone="no"?>
<!DOCTYPE svg PUBLIC "-//W3C//DTD SVG 20010904//EN"
 "http://www.w3.org/TR/2001/REC-SVG-20010904/DTD/svg10.dtd">
<svg version="1.0" xmlns="http://www.w3.org/2000/svg"
 width="527.000000pt" height="527.000000pt" viewBox="0 0 527.000000 527.000000"
 preserveAspectRatio="xMidYMid meet">
<metadata>
Created by potrace 1.14, written by Peter Selinger 2001-2017
</metadata>
<g transform="translate(0.000000,527.000000) scale(0.100000,-0.100000)"
fill="#000000" stroke="none">
<path d="M2644 5173 c-36 -34 -150 -169 -205 -243 -77 -104 -141 -210 -188
-310 -153 -328 -85 -605 178 -727 198 -92 426 -56 577 92 96 94 134 189 134
335 0 148 -68 346 -177 518 -86 136 -263 352 -289 352 -6 0 -20 -8 -30 -17z"/>
<path d="M1455 4529 c-105 -66 -203 -129 -219 -141 l-29 -21 7 -621 c15 -1408
39 -2512 55 -2529 22 -22 598 -48 630 -28 15 9 14 163 -5 1129 -6 263 -5 312
7 312 8 0 75 -89 149 -197 73 -109 168 -245 209 -303 41 -57 84 -121 95 -141
35 -62 137 -210 195 -284 31 -39 73 -100 94 -136 21 -36 49 -78 61 -94 30 -38
41 -29 98 74 52 96 268 473 278 486 18 23 318 540 458 787 160 283 443 751
471 781 16 17 18 16 39 -5 60 -65 235 -402 306 -590 19 -53 38 -122 42 -155 3
-32 13 -76 21 -98 46 -118 64 -568 30 -755 -52 -283 -161 -524 -323 -717 -75
-88 -109 -119 -226 -207 -190 -144 -411 -231 -750 -296 l-57 -11 -6 -57 c-12
-110 -35 -194 -77 -275 -56 -111 -211 -266 -351 -351 -95 -58 -119 -81 -74
-71 12 2 76 9 142 15 219 19 578 103 770 180 394 157 721 391 956 685 288 359
433 670 506 1085 28 163 25 609 -5 775 -50 268 -120 479 -232 700 -141 279
-306 501 -536 725 -176 171 -285 252 -331 248 -37 -3 -53 2 -53 18 0 10 6 14
15 10 28 -10 15 14 -17 34 -62 37 -53 47 -175 -190 -41 -80 -92 -176 -113
-215 -53 -100 -188 -361 -371 -720 -86 -170 -185 -362 -218 -425 -34 -63 -89
-170 -123 -237 -35 -68 -67 -123 -73 -123 -14 0 -14 1 -307 579 -143 284 -289
570 -323 636 -34 66 -144 283 -245 482 -100 199 -188 364 -194 366 -7 3 -97
-49 -201 -114z"/>
<path d="M975 4025 c-59 -63 -204 -252 -273 -355 -75 -111 -207 -376 -252
-505 -169 -485 -158 -1035 30 -1485 145 -349 311 -599 565 -854 250 -250 541
-421 822 -482 47 -10 123 -17 193 -17 251 -1 442 96 570 291 66 99 132 236
134 276 1 31 1 31 -64 37 -87 9 -340 26 -585 40 -110 6 -240 15 -290 20 -49 5
-169 13 -265 19 -347 21 -461 29 -470 35 -6 4 -10 65 -10 143 -1 75 -5 223
-10 327 -5 105 -12 375 -15 600 -3 226 -8 430 -10 454 -2 23 -7 363 -11 755
-4 391 -10 718 -14 726 -7 11 -16 6 -45 -25z"/>
</g>
</svg>
